<svg width="90" height="90" viewBox="0 0 90 90" fill="none" xmlns="http://www.w3.org/2000/svg">
<path d="M36.1733 84.6584L5.33984 53.825V36.1743L36.1733 5.34082H53.824L84.6574 36.1743V53.825L53.824 84.6584H36.1733V84.6584Z" stroke="#42D3FF" stroke-miterlimit="10"/>
<path d="M88.9996 44.9996L45 1L1.00036 44.9996L45 88.9993L88.9996 44.9996Z" stroke="#42D3FF" stroke-miterlimit="10"/>
<path d="M13.2842 57.2866H76.7367" stroke="#42D3FF" stroke-miterlimit="10"/>
<path d="M50.8058 24.6938V29.7676C50.3016 30.0207 48.1553 31.0291 44.9986 31.0291C41.8419 31.0291 39.6976 30.0446 39.1914 29.7676V24.6938C39.1914 21.007 43.3066 12.4238 44.9986 12.4238C46.6905 12.4238 50.8058 21.007 50.8058 24.6938Z" fill="white"/>
<path d="M48.5853 21.2603C48.3582 21.083 47.3478 20.3018 45.0002 20.3018C42.6526 20.3018 41.6422 21.059 41.4151 21.2603C41.3891 21.2862 41.3652 21.3101 41.3652 21.362V22.0176C41.3652 22.1192 41.4908 22.195 41.5665 22.1192C41.9711 21.8422 43.0054 21.3121 44.9743 21.3121C46.9432 21.3121 47.9775 21.8422 48.3821 22.1192C48.4837 22.1691 48.5834 22.1192 48.5834 22.0176V21.362C48.6332 21.336 48.6332 21.2862 48.5834 21.2603H48.5853Z" fill="#42D3FF"/>
<path d="M50.8047 43.3506C50.8047 43.3506 57.7976 48.9306 58.2261 56.908C58.252 57.3623 57.8215 57.6912 57.3931 57.5636C55.3484 56.9319 53.9335 54.2316 50.8047 54.2316V43.3506V43.3506Z" fill="url(#paint0_linear_8464_18787)"/>
<path d="M39.2194 43.3506C39.2194 43.3506 32.2265 48.9306 31.798 56.908C31.7721 57.3623 32.2025 57.6912 32.631 57.5636C34.6757 56.9319 36.0906 54.2316 39.2194 54.2316V43.3506V43.3506Z" fill="url(#paint1_linear_8464_18787)"/>
<path d="M50.8057 33.0498V54.2318H39.1934V33.0498C39.6976 33.3029 41.8439 34.3113 45.0005 34.3113C48.1572 34.3113 50.3015 33.3268 50.8077 33.0498H50.8057Z" fill="white"/>
<path d="M45.0009 43.3506C44.3691 43.3506 43.5859 50.0147 43.5859 57.185C43.5859 58.3209 44.2934 59.4309 45.0009 59.4309C45.7083 59.4309 46.4138 58.295 46.4138 57.185C46.4397 50.0147 45.6565 43.3506 45.0009 43.3506Z" fill="url(#paint2_linear_8464_18787)"/>
<path d="M45.0005 54.2319H39.1934L40.4548 56.9322C40.4548 56.9322 43.9144 57.285 44.9985 57.285C46.0827 57.285 49.5423 56.9322 49.5423 56.9322L50.8037 54.2319H44.9966H45.0005Z" fill="url(#paint3_linear_8464_18787)"/>
<path d="M45.3031 10.5064V8.9659H45.9588V7.19824H29.1191V53.273H30.2551V49.4866L32.8039 46.9378L34.5716 48.7054L34.6214 48.7552L35.2771 47.7708L33.611 46.1047L35.2771 44.4387V46.1047H36.413V8.94199H44.6694V10.4825C44.0895 10.608 43.6849 11.1142 43.6849 11.7439C43.6849 12.1724 43.9121 12.577 44.2409 12.8041C44.3167 12.854 44.3924 12.9058 44.4681 12.9297V13.8643H45.4526V12.9297C45.5283 12.9038 45.6299 12.854 45.7057 12.8041C46.0345 12.577 46.2617 12.1983 46.2617 11.7439C46.2876 11.1381 45.8571 10.6339 45.3031 10.5064V10.5064ZM35.281 8.94199L32.8318 11.3912L30.3826 8.94199H35.281V8.94199ZM35.307 10.5582V13.8663L33.6409 12.2003L35.307 10.5602V10.5582ZM30.283 10.4825L32.0247 12.2242L30.283 13.966V10.4825ZM30.283 15.5822L32.8338 13.0333L35.307 15.5065V15.7336L32.8338 18.2068L30.283 15.6579V15.5822ZM35.307 17.3239V20.6321L33.6409 18.966L35.307 17.3259V17.3239ZM30.283 17.2482L32.0247 18.99L30.283 20.7317V17.2482ZM30.283 24.014L32.0247 25.7557L30.283 27.4975V24.014ZM30.283 30.8056L32.0247 32.5473L30.283 34.2891V30.8056ZM30.283 37.5713L32.0247 39.3131L30.283 41.0548V37.5713ZM30.283 47.8465V44.363L32.0247 46.1047L30.283 47.8465ZM35.307 42.8225L32.8338 45.2976L30.283 42.7488V42.699L32.8338 40.1501L35.307 42.6232V42.8245V42.8225ZM35.307 40.9791L33.6409 39.3131L35.307 37.6471V40.9791ZM35.307 36.0309L32.8338 38.504L30.283 35.9551V35.9053L32.8338 33.3564L35.307 35.8316V36.0329V36.0309ZM35.307 34.2134L33.6409 32.5473L35.307 30.8813V34.2134ZM35.307 29.2651L32.8338 31.7383L30.283 29.1894V29.1396L32.8338 26.5907L35.307 29.0638V29.2651ZM35.307 27.4217L33.6409 25.7557L35.307 24.0897V27.4217V27.4217ZM35.307 22.2722V22.4994L32.8338 24.9725L31.395 23.5337L30.285 22.4237V22.3738L32.8358 19.825L35.3089 22.2742L35.307 22.2722Z" fill="url(#paint4_linear_8464_18787)"/>
<path d="M40.4767 74.8221V74.5132L40.0781 74.7443L40.3432 75.2067L40.7437 74.9755L40.4767 74.8221V74.8221Z" fill="#42D3FF"/>
<path d="M40.7437 74.9755L40.3432 75.2067L40.0781 74.7443L40.4767 74.5132V74.8221L40.7437 74.9755Z" fill="#42D3FF"/>
<path d="M49.9206 69.214L45.1317 66.4499C45.05 66.4021 44.9484 66.4021 44.8647 66.4499L40.0779 69.214C39.9942 69.2619 39.9443 69.3495 39.9443 69.4452V74.9754C39.9443 75.071 39.9942 75.1587 40.0779 75.2065L44.8647 77.9706C44.9065 77.9945 44.9524 78.0065 44.9982 78.0065C45.044 78.0065 45.0919 77.9945 45.1317 77.9706L49.9206 75.2065C50.0043 75.1587 50.0541 75.071 50.0541 74.9754V69.4452C50.0541 69.3495 50.0043 69.2619 49.9206 69.214V69.214ZM40.7435 74.9754L44.9982 72.5182L49.253 74.9754L44.9982 77.4326L40.7435 74.9754L40.3429 75.2065L40.0779 74.7442L40.4764 74.513V69.6006L44.9982 66.99L49.253 69.4452L40.4764 74.513V74.8219L40.7435 74.9754V74.9754Z" fill="#42D3FF"/>
<defs>
<linearGradient id="paint0_linear_8464_18787" x1="54.5174" y1="44.359" x2="54.5174" y2="58.2651" gradientUnits="userSpaceOnUse">
<stop stop-color="#42D3FF"/>
<stop offset="1" stop-color="#02799D"/>
</linearGradient>
<linearGradient id="paint1_linear_8464_18787" x1="35.5067" y1="44.359" x2="35.5067" y2="58.2651" gradientUnits="userSpaceOnUse">
<stop stop-color="#42D3FF"/>
<stop offset="1" stop-color="#02799D"/>
</linearGradient>
<linearGradient id="paint2_linear_8464_18787" x1="45.0009" y1="45.5567" x2="45.0009" y2="58.2771" gradientUnits="userSpaceOnUse">
<stop stop-color="#42D3FF"/>
<stop offset="1" stop-color="#02799D"/>
</linearGradient>
<linearGradient id="paint3_linear_8464_18787" x1="45.0005" y1="45.557" x2="45.0005" y2="58.2774" gradientUnits="userSpaceOnUse">
<stop stop-color="#42D3FF"/>
<stop offset="1" stop-color="#02799D"/>
</linearGradient>
<linearGradient id="paint4_linear_8464_18787" x1="37.6904" y1="24.8529" x2="37.6904" y2="53.1056" gradientUnits="userSpaceOnUse">
<stop stop-color="#42D3FF"/>
<stop offset="0.68" stop-color="#42D3FF" stop-opacity="0"/>
</linearGradient>
</defs>
</svg>
